PathFileType	4	(X/Y/Z)	Patient4_TMGait_0pt6_01_left_34.trc.trc
DataRate	CameraRate	NumFrames	NumMarkers	Units	OrigDataRate	OrigDataStartFrame	OrigNumFrames
85.889570552147	85.889570552147	5	33	mm	85.889570552147	89	       141
Frame#	Time	Sacral			L.Shoulder			Chest			R.Shoulder			Neck			R.ASIS			L.ASIS			R.Thigh.Superior			R.Thigh.Lateral			R.Thigh.Inferior			R.Patella			L.Thigh.Superior			L.Thigh.Lateral			L.Thigh.Inferior			L.Patella			L.Shank.Superior			L.Shank.Lateral			L.Shank.Inferior			R.Shank.Superior			R.Shank.Lateral			R.Shank.Inferior			R.Heel			R.Midfoot.Superior			R.Midfoot.Lateral			R.Toe			L.Heel			L.Midfoot.Lateral			L.Midfoot.Superior			L.Toe			L.Elbow			L.Wrist			R.Elbow			R.Wrist			
		X1	Y1	Z1	X2	Y2	Z2	X3	Y3	Z3	X4	Y4	Z4	X5	Y5	Z5	X6	Y6	Z6	X7	Y7	Z7	X8	Y8	Z8	X9	Y9	Z9	X10	Y10	Z10	X11	Y11	Z11	X12	Y12	Z12	X13	Y13	Z13	X14	Y14	Z14	X15	Y15	Z15	X16	Y16	Z16	X17	Y17	Z17	X18	Y18	Z18	X19	Y19	Z19	X20	Y20	Z20	X21	Y21	Z21	X22	Y22	Z22	X23	Y23	Z23	X24	Y24	Z24	X25	Y25	Z25	X26	Y26	Z26	X27	Y27	Z27	X28	Y28	Z28	X29	Y29	Z29	X30	Y30	Z30	X31	Y31	Z31	X32	Y32	Z32	X33	Y33	Z33	

89	42.414571428571	774.767911931507	994.965132001053	476.931748590650	936.865396857409	1436.768970079303	317.812626374972	1037.695481105882	1364.046757863353	478.118474947745	945.998548803004	1424.200376608650	651.659520750057	910.774083238166	1488.754020227825	472.878814962473	1003.005981538758	938.735615861141	599.145679308083	991.001463366955	957.003170324339	324.647277586159	1066.527760070835	748.736951758133	570.770971689331	998.170376517881	632.391524289592	629.045839305852	1085.201568590553	589.082905856265	552.784150943226	1096.087588619356	497.853015919818	560.613503036867	1031.285220977733	734.803312259882	347.848799876893	943.040227184905	620.282845704204	283.106970034846	1028.759187554353	534.965169076305	339.520702362895	1018.616633021003	448.458326192842	337.485273554567	947.260994319772	391.492098250158	335.909900561257	804.647705802053	352.369771500969	290.899941913683	786.411478053148	228.453030755184	354.483339847622	1067.188846647196	407.180664159368	565.933136176532	993.368702618048	301.580334852977	621.801502573540	1042.643421981517	208.309541901116	561.859058477064	914.244405594038	41.694943036371	521.956707226154	1083.282980467538	98.404305050169	565.822182483598	994.391006705108	36.323036125798	600.834306945166	1202.157508344654	48.800624015298	597.500409059459	591.769217731230	166.622803917576	396.241724620474	650.262859739178	121.513015463907	317.084084086265	754.571266743211	132.491997522442	338.079221351949	834.702786853173	33.088156285331	313.142167100505	982.516163811931	1096.163569381775	177.099194850295	1233.033198407341	1036.975046777246	186.494011473932	855.475078179442	1082.161273909248	743.415511516276	882.334518894667	822.139794557730	736.685548966789	
90	42.426214285714	775.006222027090	995.777063302007	479.883195727652	934.743177890399	1438.102967982229	319.977321092158	1037.460481589237	1365.001060599069	479.005065895202	947.680489366504	1424.577800982104	653.712223152178	910.568613311237	1489.639813546791	475.522197018943	1003.828090241964	939.836452666718	600.063956935960	990.085597329684	957.907311133978	325.392780814165	1064.796937002711	748.027580767344	573.279160089829	994.731613262758	632.530508936723	630.724958617937	1081.565980994619	588.377945941410	554.738641547259	1091.270385796082	497.204810467706	562.355303061371	1035.302795751711	738.017448342676	348.234712110363	950.495568683041	621.562502663785	283.049871363327	1039.351533887396	538.140596372551	338.173953312232	1030.647469072232	450.666555257933	335.592577539136	958.070455448013	393.610866200615	334.679271640535	813.613631890291	358.308213571382	291.927798483827	793.536106520034	234.408301822613	354.876670835187	1061.859103561959	406.770322496073	567.365651615420	987.307386918438	301.440017309134	622.759244635863	1036.293460515992	208.085700655568	562.585741389347	907.389362058361	41.630524944343	522.152484033658	1076.533249438174	98.389414869594	566.232555727215	987.512830947366	36.273952935597	600.996989239376	1195.270323606900	48.853833465544	597.663096168394	598.066883583912	178.371841309838	399.837647769037	653.443939787112	132.203937977472	318.952946988531	758.767323391157	138.904524221607	338.056230802675	834.332545115346	34.307870160254	309.838562614683	975.720402793640	1095.897580010220	180.665271378435	1224.124397928429	1026.769249385129	188.761025263261	865.264087050732	1080.229154260988	747.151369639572	901.542366627875	821.286950267891	740.843356290956	
91	42.437857142857	775.158091346018	996.611429581476	482.747346175893	932.516223378949	1439.378751547418	321.935945444628	1037.137590002291	1365.943716860848	479.665900204838	949.320218608429	1424.942397031964	655.559934208217	910.345053739951	1490.498407627823	477.999314516336	1004.451166146402	940.874405419319	600.990366274430	989.211546958768	958.790363385627	326.150458168455	1062.862065272585	747.349022381629	575.697724777525	991.115960039633	632.636801247330	632.319286094136	1077.714172330488	587.663015968010	556.568862950776	1086.201242713560	496.566093760391	563.986239019787	1039.003072619807	741.445893086893	348.502645209921	957.410385076492	623.306906667080	282.808184404475	1049.270223825094	541.844824473631	336.607317658886	1042.175697620295	453.537855182373	333.491096993726	968.760184538927	396.219414994163	333.179964982537	822.742660069039	363.939644519128	292.814980418091	801.581747519557	239.920598906062	355.057707990148	1056.336312674762	406.383867850987	568.691883618919	981.125136721535	301.299065331210	623.622878657500	1029.854436739783	207.873429240871	563.253493637911	900.496061942772	41.593621874827	522.319063311523	1069.709898912209	98.373294290557	566.551716602625	980.593028172117	36.235984899772	601.133453015006	1188.348333066733	48.830054772556	597.821251942054	605.946148501978	188.026276243548	403.483725384165	658.389974866034	141.598151134337	320.698412542950	764.496348023427	144.959205256595	337.724453740730	836.307350582706	36.179481460647	305.822310558848	968.755609063259	1095.615790787884	184.015623551461	1214.419826362558	1015.948483831595	191.028408927732	875.504266305329	1078.431158950886	750.775698418086	921.342916412868	820.922046436064	744.973909155083	
92	42.449500000000	775.219454333883	997.464196086351	485.507575108723	930.245325134687	1440.584001157175	323.690339447071	1036.746264030343	1366.874098545845	480.132659441567	950.906045589393	1425.333651925935	657.200756598969	910.110127568690	1491.336292572111	480.289885720892	1004.888356932772	941.837690473193	601.946152843499	988.393213594318	959.691917857640	326.966584725804	1060.786948489563	746.735138701831	577.918048492682	987.418164272705	632.732430809656	633.794640509375	1073.706523569079	586.954716644641	558.211712378112	1080.947635900890	495.951172765947	565.444597952537	1042.361764983151	745.065916255119	348.693308400243	963.755497653528	625.477165122728	282.437177202382	1058.477244869644	546.025295304509	334.893350166751	1053.145909741014	457.027836450529	331.243893855070	979.293909417825	399.252483433547	331.465760182689	832.023871843693	369.049550469367	293.491123761245	810.600736300153	244.743587301216	354.948716623094	1050.688184933878	406.028009582705	569.870823291783	974.884139731468	301.175211342036	624.370728021576	1023.359503510478	207.675644445013	563.846266105238	893.556747482309	41.588318951552	522.463229931299	1062.820188068169	98.347326576677	566.786035481082	973.630865344673	36.212988673140	601.248385952950	1181.392792855642	48.734747498842	597.974732125470	615.357523647185	195.183492629142	406.872478820988	665.227740782875	149.212266348344	322.138479520067	771.908882593178	150.304517723743	337.032564592185	840.962822596435	38.560933135057	301.301202389413	961.682337326668	1095.328536194018	187.146581469574	1203.889313933898	1004.551019085447	193.288877407963	886.171731691685	1076.831605910227	754.223218964580	941.674797909369	821.142228058017	749.000580544009	
93	42.461142857143	775.178991016345	998.331849635158	488.149812694075	927.985824958694	1441.707922776038	325.251607704261	1036.305158494201	1367.789888046686	480.442433684282	952.429630618565	1425.790747815863	658.639191410118	909.865940833513	1492.159982926288	482.376398865570	1005.158210083877	942.718021994701	602.931822481260	987.614799328806	960.647601835110	327.870929564651	1058.624849455170	746.197765544523	579.851031164978	983.704730137239	632.833741697371	635.120645952863	1069.581570852800	586.263015595981	559.612760816129	1075.559302627218	495.369332682080	566.670965223392	1045.372034007597	748.848801273091	348.850506390451	969.551704183043	628.012874828799	281.996748261546	1066.977617367070	550.609248303676	333.126070611507	1063.538346109033	461.072686691192	328.952230350991	989.665397544133	402.626460131886	329.626232230759	841.485162255870	373.436081958897	293.886717642390	820.635965616312	248.672820636065	354.498130780461	1044.964941341254	405.706216583008	570.865311034027	968.632475362215	301.080019839069	624.983627121406	1016.836269533972	207.494531510050	564.346498936020	886.571792148399	41.613246122685	522.589283853275	1055.875984818840	98.303820265713	566.943391893613	966.632547479776	36.206193386290	601.345230295536	1174.409760200209	48.579860818104	598.124266187862	626.225419860258	199.603954094102	409.684025260888	674.047761932437	154.674852286996	323.096201678272	781.120288337561	154.631740498037	335.965453354231	848.545888264783	41.216084537935	296.551803150883	954.558190177566	1095.050102604792	190.067760568382	1192.501987360553	992.634418208173	195.535819843829	897.220298712102	1075.501793680919	757.442069061464	962.491930947539	822.056853584403	752.835785681386	
